<mxfile host="app.diagrams.net" modified="2022-02-10T14:34:28.810Z" agent="5.0 (Windows NT 10.0; Win64; x64) AppleWebKit/537.36 (KHTML, like Gecko) Chrome/95.0.4638.54 Safari/537.36" etag="6EszXO0E8_HQEOSo5tMa" version="16.5.4" type="github" pages="6">
  <diagram id="prtHgNgQTEPvFCAcTncT" name="整体架构图">
    <mxGraphModel dx="2062" dy="1114" grid="0" gridSize="10" guides="1" tooltips="1" connect="1" arrows="1" fold="1" page="1" pageScale="1" pageWidth="827" pageHeight="1169" math="0" shadow="0">
      <root>
        <mxCell id="0" />
        <mxCell id="1" parent="0" />
        <mxCell id="tSn-I85bOhlhE9YaRbNu-2" value="" style="outlineConnect=0;dashed=0;verticalLabelPosition=bottom;verticalAlign=top;align=center;html=1;shape=mxgraph.aws3.mobile_client;fillColor=#6d8764;strokeColor=#3A5431;fontColor=#ffffff;" parent="1" vertex="1">
          <mxGeometry x="14" y="367" width="40.5" height="63" as="geometry" />
        </mxCell>
        <mxCell id="7KZkec6slJOl6fVdp8O3-6" value="战斗(就近部署)" style="swimlane;fillColor=#76608a;fontColor=#ffffff;strokeColor=#432D57;" parent="1" vertex="1">
          <mxGeometry x="133" y="482" width="170" height="116" as="geometry" />
        </mxCell>
        <mxCell id="7KZkec6slJOl6fVdp8O3-7" value="tconnd" style="whiteSpace=wrap;html=1;" parent="7KZkec6slJOl6fVdp8O3-6" vertex="1">
          <mxGeometry x="17" y="33" width="60" height="30" as="geometry" />
        </mxCell>
        <mxCell id="7KZkec6slJOl6fVdp8O3-9" value="relaysvr" style="whiteSpace=wrap;html=1;" parent="7KZkec6slJOl6fVdp8O3-6" vertex="1">
          <mxGeometry x="92" y="33" width="60" height="30" as="geometry" />
        </mxCell>
        <mxCell id="r16qE9zVfG3X0fcgj5cs-6" value="tconnd" style="whiteSpace=wrap;html=1;" parent="7KZkec6slJOl6fVdp8O3-6" vertex="1">
          <mxGeometry x="17" y="75" width="60" height="30" as="geometry" />
        </mxCell>
        <mxCell id="r16qE9zVfG3X0fcgj5cs-7" value="relaysvr" style="whiteSpace=wrap;html=1;" parent="7KZkec6slJOl6fVdp8O3-6" vertex="1">
          <mxGeometry x="92" y="75" width="60" height="30" as="geometry" />
        </mxCell>
        <mxCell id="7KZkec6slJOl6fVdp8O3-16" value="后端服务(集中部署)" style="swimlane;fillColor=#1ba1e2;fontColor=#ffffff;strokeColor=#006EAF;" parent="1" vertex="1">
          <mxGeometry x="569" y="309.5" width="172" height="178" as="geometry" />
        </mxCell>
        <mxCell id="r16qE9zVfG3X0fcgj5cs-23" value="matchsvr" style="whiteSpace=wrap;html=1;" parent="7KZkec6slJOl6fVdp8O3-16" vertex="1">
          <mxGeometry x="17" y="38.5" width="60" height="30" as="geometry" />
        </mxCell>
        <mxCell id="r16qE9zVfG3X0fcgj5cs-24" value="roomsvr" style="whiteSpace=wrap;html=1;" parent="7KZkec6slJOl6fVdp8O3-16" vertex="1">
          <mxGeometry x="17" y="85" width="60" height="30" as="geometry" />
        </mxCell>
        <mxCell id="r16qE9zVfG3X0fcgj5cs-25" value="ds" style="whiteSpace=wrap;html=1;" parent="7KZkec6slJOl6fVdp8O3-16" vertex="1">
          <mxGeometry x="17" y="132" width="60" height="30" as="geometry" />
        </mxCell>
        <mxCell id="r16qE9zVfG3X0fcgj5cs-26" value="idipsvr" style="whiteSpace=wrap;html=1;" parent="7KZkec6slJOl6fVdp8O3-16" vertex="1">
          <mxGeometry x="96" y="38.5" width="60" height="30" as="geometry" />
        </mxCell>
        <mxCell id="r16qE9zVfG3X0fcgj5cs-27" value="externsvr" style="whiteSpace=wrap;html=1;" parent="7KZkec6slJOl6fVdp8O3-16" vertex="1">
          <mxGeometry x="96" y="85" width="60" height="30" as="geometry" />
        </mxCell>
        <mxCell id="r16qE9zVfG3X0fcgj5cs-28" value="guildsvr" style="whiteSpace=wrap;html=1;" parent="7KZkec6slJOl6fVdp8O3-16" vertex="1">
          <mxGeometry x="96" y="132" width="60" height="30" as="geometry" />
        </mxCell>
        <mxCell id="r16qE9zVfG3X0fcgj5cs-8" value="大厅服(集中部署)" style="swimlane;fillColor=#1ba1e2;fontColor=#ffffff;strokeColor=#006EAF;" parent="1" vertex="1">
          <mxGeometry x="133" y="337" width="170" height="116" as="geometry" />
        </mxCell>
        <mxCell id="r16qE9zVfG3X0fcgj5cs-9" value="tconnd" style="whiteSpace=wrap;html=1;" parent="r16qE9zVfG3X0fcgj5cs-8" vertex="1">
          <mxGeometry x="17" y="33" width="60" height="30" as="geometry" />
        </mxCell>
        <mxCell id="r16qE9zVfG3X0fcgj5cs-10" value="gamesvr" style="whiteSpace=wrap;html=1;" parent="r16qE9zVfG3X0fcgj5cs-8" vertex="1">
          <mxGeometry x="92" y="33" width="60" height="30" as="geometry" />
        </mxCell>
        <mxCell id="r16qE9zVfG3X0fcgj5cs-11" value="tconnd" style="whiteSpace=wrap;html=1;" parent="r16qE9zVfG3X0fcgj5cs-8" vertex="1">
          <mxGeometry x="17" y="75" width="60" height="30" as="geometry" />
        </mxCell>
        <mxCell id="r16qE9zVfG3X0fcgj5cs-12" value="gamesvr" style="whiteSpace=wrap;html=1;" parent="r16qE9zVfG3X0fcgj5cs-8" vertex="1">
          <mxGeometry x="92" y="75" width="60" height="30" as="geometry" />
        </mxCell>
        <mxCell id="r16qE9zVfG3X0fcgj5cs-13" value="导航服(集中部署)" style="swimlane;fillColor=#1ba1e2;fontColor=#ffffff;strokeColor=#006EAF;" parent="1" vertex="1">
          <mxGeometry x="133" y="198" width="170" height="116" as="geometry" />
        </mxCell>
        <mxCell id="r16qE9zVfG3X0fcgj5cs-14" value="tconnd" style="whiteSpace=wrap;html=1;" parent="r16qE9zVfG3X0fcgj5cs-13" vertex="1">
          <mxGeometry x="17" y="33" width="60" height="30" as="geometry" />
        </mxCell>
        <mxCell id="r16qE9zVfG3X0fcgj5cs-15" value="dirsvr" style="whiteSpace=wrap;html=1;" parent="r16qE9zVfG3X0fcgj5cs-13" vertex="1">
          <mxGeometry x="92" y="33" width="60" height="30" as="geometry" />
        </mxCell>
        <mxCell id="r16qE9zVfG3X0fcgj5cs-16" value="tconnd" style="whiteSpace=wrap;html=1;" parent="r16qE9zVfG3X0fcgj5cs-13" vertex="1">
          <mxGeometry x="17" y="75" width="60" height="30" as="geometry" />
        </mxCell>
        <mxCell id="r16qE9zVfG3X0fcgj5cs-17" value="dirsvr" style="whiteSpace=wrap;html=1;" parent="r16qE9zVfG3X0fcgj5cs-13" vertex="1">
          <mxGeometry x="92" y="75" width="60" height="30" as="geometry" />
        </mxCell>
        <mxCell id="r16qE9zVfG3X0fcgj5cs-18" value="路由服(集中部署)" style="swimlane;startSize=23;fillColor=#1ba1e2;fontColor=#ffffff;strokeColor=#006EAF;" parent="1" vertex="1">
          <mxGeometry x="352" y="362" width="169" height="73" as="geometry" />
        </mxCell>
        <mxCell id="r16qE9zVfG3X0fcgj5cs-19" value="proxy" style="whiteSpace=wrap;html=1;" parent="r16qE9zVfG3X0fcgj5cs-18" vertex="1">
          <mxGeometry x="17" y="33" width="60" height="30" as="geometry" />
        </mxCell>
        <mxCell id="r16qE9zVfG3X0fcgj5cs-20" value="proxy" style="whiteSpace=wrap;html=1;" parent="r16qE9zVfG3X0fcgj5cs-18" vertex="1">
          <mxGeometry x="92" y="33" width="60" height="30" as="geometry" />
        </mxCell>
        <mxCell id="r16qE9zVfG3X0fcgj5cs-29" value="" style="endArrow=none;dashed=1;html=1;rounded=0;exitX=1;exitY=0.5;exitDx=0;exitDy=0;exitPerimeter=0;entryX=0;entryY=0.5;entryDx=0;entryDy=0;" parent="1" source="tSn-I85bOhlhE9YaRbNu-2" target="r16qE9zVfG3X0fcgj5cs-13" edge="1">
          <mxGeometry width="50" height="50" relative="1" as="geometry">
            <mxPoint x="52" y="418" as="sourcePoint" />
            <mxPoint x="102" y="368" as="targetPoint" />
          </mxGeometry>
        </mxCell>
        <mxCell id="r16qE9zVfG3X0fcgj5cs-30" value="" style="endArrow=none;dashed=1;html=1;rounded=0;entryX=0;entryY=0.5;entryDx=0;entryDy=0;" parent="1" target="r16qE9zVfG3X0fcgj5cs-8" edge="1">
          <mxGeometry width="50" height="50" relative="1" as="geometry">
            <mxPoint x="55" y="396" as="sourcePoint" />
            <mxPoint x="105" y="396" as="targetPoint" />
          </mxGeometry>
        </mxCell>
        <mxCell id="r16qE9zVfG3X0fcgj5cs-33" value="" style="endArrow=none;html=1;rounded=0;" parent="1" edge="1">
          <mxGeometry width="50" height="50" relative="1" as="geometry">
            <mxPoint x="303" y="402" as="sourcePoint" />
            <mxPoint x="353" y="402" as="targetPoint" />
          </mxGeometry>
        </mxCell>
        <mxCell id="r16qE9zVfG3X0fcgj5cs-35" value="" style="endArrow=none;html=1;rounded=0;exitX=1;exitY=0.5;exitDx=0;exitDy=0;entryX=0;entryY=0.5;entryDx=0;entryDy=0;" parent="1" source="7KZkec6slJOl6fVdp8O3-6" target="r16qE9zVfG3X0fcgj5cs-18" edge="1">
          <mxGeometry width="50" height="50" relative="1" as="geometry">
            <mxPoint x="304" y="566" as="sourcePoint" />
            <mxPoint x="354" y="516" as="targetPoint" />
          </mxGeometry>
        </mxCell>
        <mxCell id="UbGfLUZqFhjUkp0P0_gI-1" value="组件" style="swimlane;fillColor=#60a917;fontColor=#ffffff;strokeColor=#2D7600;" parent="1" vertex="1">
          <mxGeometry x="140" y="86" width="392" height="75" as="geometry" />
        </mxCell>
        <mxCell id="UbGfLUZqFhjUkp0P0_gI-2" value="Gcloud" style="whiteSpace=wrap;html=1;" parent="UbGfLUZqFhjUkp0P0_gI-1" vertex="1">
          <mxGeometry x="17" y="33" width="60" height="30" as="geometry" />
        </mxCell>
        <mxCell id="UbGfLUZqFhjUkp0P0_gI-3" value="Apollo" style="whiteSpace=wrap;html=1;" parent="UbGfLUZqFhjUkp0P0_gI-1" vertex="1">
          <mxGeometry x="92" y="33" width="60" height="30" as="geometry" />
        </mxCell>
        <mxCell id="UbGfLUZqFhjUkp0P0_gI-4" value="Tcaplus" style="whiteSpace=wrap;html=1;" parent="UbGfLUZqFhjUkp0P0_gI-1" vertex="1">
          <mxGeometry x="167" y="33" width="60" height="30" as="geometry" />
        </mxCell>
        <mxCell id="UbGfLUZqFhjUkp0P0_gI-5" value="Tlog" style="whiteSpace=wrap;html=1;" parent="UbGfLUZqFhjUkp0P0_gI-1" vertex="1">
          <mxGeometry x="317" y="33" width="60" height="30" as="geometry" />
        </mxCell>
        <mxCell id="UbGfLUZqFhjUkp0P0_gI-6" value="Msdk" style="whiteSpace=wrap;html=1;" parent="UbGfLUZqFhjUkp0P0_gI-1" vertex="1">
          <mxGeometry x="242" y="33" width="60" height="30" as="geometry" />
        </mxCell>
        <mxCell id="UbGfLUZqFhjUkp0P0_gI-8" value="" style="endArrow=none;html=1;rounded=0;entryX=0;entryY=0.5;entryDx=0;entryDy=0;exitX=1;exitY=0.5;exitDx=0;exitDy=0;" parent="1" source="r16qE9zVfG3X0fcgj5cs-18" target="7KZkec6slJOl6fVdp8O3-16" edge="1">
          <mxGeometry width="50" height="50" relative="1" as="geometry">
            <mxPoint x="524" y="410" as="sourcePoint" />
            <mxPoint x="926.7106781186548" y="772" as="targetPoint" />
          </mxGeometry>
        </mxCell>
        <mxCell id="UbGfLUZqFhjUkp0P0_gI-9" value="" style="endArrow=none;dashed=1;html=1;rounded=0;entryX=0.5;entryY=1;entryDx=0;entryDy=0;" parent="1" target="UbGfLUZqFhjUkp0P0_gI-1" edge="1">
          <mxGeometry width="50" height="50" relative="1" as="geometry">
            <mxPoint x="306" y="376" as="sourcePoint" />
            <mxPoint x="398" y="141" as="targetPoint" />
            <Array as="points">
              <mxPoint x="336" y="376" />
            </Array>
          </mxGeometry>
        </mxCell>
        <object label="" id="UbGfLUZqFhjUkp0P0_gI-10">
          <mxCell style="endArrow=none;html=1;rounded=0;" parent="1" edge="1">
            <mxGeometry width="50" height="50" relative="1" as="geometry">
              <mxPoint x="569" y="535" as="sourcePoint" />
              <mxPoint x="734" y="535" as="targetPoint" />
            </mxGeometry>
          </mxCell>
        </object>
        <mxCell id="UbGfLUZqFhjUkp0P0_gI-11" value="tbus" style="text;html=1;align=center;verticalAlign=middle;resizable=0;points=[];autosize=1;strokeColor=none;fillColor=none;" parent="1" vertex="1">
          <mxGeometry x="637" y="520" width="32" height="18" as="geometry" />
        </mxCell>
        <mxCell id="UbGfLUZqFhjUkp0P0_gI-12" value="" style="endArrow=none;dashed=1;html=1;dashPattern=1 3;strokeWidth=2;rounded=0;entryX=0;entryY=0.5;entryDx=0;entryDy=0;" parent="1" target="7KZkec6slJOl6fVdp8O3-6" edge="1">
          <mxGeometry width="50" height="50" relative="1" as="geometry">
            <mxPoint x="56" y="398" as="sourcePoint" />
            <mxPoint x="135" y="493" as="targetPoint" />
          </mxGeometry>
        </mxCell>
        <mxCell id="UbGfLUZqFhjUkp0P0_gI-13" value="" style="endArrow=none;dashed=1;html=1;rounded=0;" parent="1" edge="1">
          <mxGeometry width="50" height="50" relative="1" as="geometry">
            <mxPoint x="569" y="564" as="sourcePoint" />
            <mxPoint x="736" y="564" as="targetPoint" />
          </mxGeometry>
        </mxCell>
        <mxCell id="UbGfLUZqFhjUkp0P0_gI-15" value="tcp" style="text;html=1;align=center;verticalAlign=middle;resizable=0;points=[];autosize=1;strokeColor=none;fillColor=none;" parent="1" vertex="1">
          <mxGeometry x="642" y="546" width="26" height="18" as="geometry" />
        </mxCell>
        <mxCell id="UbGfLUZqFhjUkp0P0_gI-16" value="" style="endArrow=none;dashed=1;html=1;dashPattern=1 3;strokeWidth=2;rounded=0;" parent="1" edge="1">
          <mxGeometry width="50" height="50" relative="1" as="geometry">
            <mxPoint x="569" y="595" as="sourcePoint" />
            <mxPoint x="730" y="595" as="targetPoint" />
          </mxGeometry>
        </mxCell>
        <mxCell id="UbGfLUZqFhjUkp0P0_gI-17" value="udp" style="text;html=1;align=center;verticalAlign=middle;resizable=0;points=[];autosize=1;strokeColor=none;fillColor=none;" parent="1" vertex="1">
          <mxGeometry x="639" y="578" width="30" height="18" as="geometry" />
        </mxCell>
        <mxCell id="UbGfLUZqFhjUkp0P0_gI-19" value="" style="edgeStyle=orthogonalEdgeStyle;rounded=0;orthogonalLoop=1;jettySize=auto;html=1;" parent="1" source="7KZkec6slJOl6fVdp8O3-9" target="r16qE9zVfG3X0fcgj5cs-12" edge="1">
          <mxGeometry relative="1" as="geometry" />
        </mxCell>
      </root>
    </mxGraphModel>
  </diagram>
  <diagram id="9eE_RVc4pomIfOxNAOgu" name="AOV AI">
    <mxGraphModel dx="1186" dy="686" grid="0" gridSize="10" guides="1" tooltips="1" connect="1" arrows="1" fold="1" page="1" pageScale="1" pageWidth="827" pageHeight="1169" math="0" shadow="0">
      <root>
        <mxCell id="aHbRZIARWTAecFtkDKZY-0" />
        <mxCell id="aHbRZIARWTAecFtkDKZY-1" parent="aHbRZIARWTAecFtkDKZY-0" />
        <mxCell id="aHbRZIARWTAecFtkDKZY-2" value="AIProxy" style="swimlane;" parent="aHbRZIARWTAecFtkDKZY-1" vertex="1">
          <mxGeometry x="550" y="180" width="180" height="100" as="geometry" />
        </mxCell>
        <mxCell id="aHbRZIARWTAecFtkDKZY-5" value="aiproxy" style="whiteSpace=wrap;html=1;" parent="aHbRZIARWTAecFtkDKZY-2" vertex="1">
          <mxGeometry x="10" y="40" width="70" height="40" as="geometry" />
        </mxCell>
        <mxCell id="aHbRZIARWTAecFtkDKZY-6" value="aiproxy" style="whiteSpace=wrap;html=1;" parent="aHbRZIARWTAecFtkDKZY-2" vertex="1">
          <mxGeometry x="100" y="40" width="70" height="40" as="geometry" />
        </mxCell>
        <mxCell id="aHbRZIARWTAecFtkDKZY-7" value="AISvr" style="swimlane;" parent="aHbRZIARWTAecFtkDKZY-1" vertex="1">
          <mxGeometry x="550" y="310" width="180" height="100" as="geometry" />
        </mxCell>
        <mxCell id="aHbRZIARWTAecFtkDKZY-8" value="aisvr" style="whiteSpace=wrap;html=1;" parent="aHbRZIARWTAecFtkDKZY-7" vertex="1">
          <mxGeometry x="10" y="40" width="70" height="40" as="geometry" />
        </mxCell>
        <mxCell id="aHbRZIARWTAecFtkDKZY-9" value="aisvr" style="whiteSpace=wrap;html=1;" parent="aHbRZIARWTAecFtkDKZY-7" vertex="1">
          <mxGeometry x="100" y="40" width="70" height="40" as="geometry" />
        </mxCell>
        <mxCell id="aHbRZIARWTAecFtkDKZY-10" value="Match" style="swimlane;" parent="aHbRZIARWTAecFtkDKZY-1" vertex="1">
          <mxGeometry x="90" y="60" width="180" height="100" as="geometry" />
        </mxCell>
        <mxCell id="aHbRZIARWTAecFtkDKZY-11" value="matchsvr" style="whiteSpace=wrap;html=1;" parent="aHbRZIARWTAecFtkDKZY-10" vertex="1">
          <mxGeometry x="10" y="40" width="70" height="40" as="geometry" />
        </mxCell>
        <mxCell id="aHbRZIARWTAecFtkDKZY-14" value="matchsvr" style="whiteSpace=wrap;html=1;" parent="aHbRZIARWTAecFtkDKZY-10" vertex="1">
          <mxGeometry x="100" y="40" width="70" height="40" as="geometry" />
        </mxCell>
        <mxCell id="aHbRZIARWTAecFtkDKZY-15" value="DsAgent" style="swimlane;" parent="aHbRZIARWTAecFtkDKZY-1" vertex="1">
          <mxGeometry x="320" y="180" width="180" height="100" as="geometry" />
        </mxCell>
        <mxCell id="aHbRZIARWTAecFtkDKZY-18" value="dsagent" style="whiteSpace=wrap;html=1;" parent="aHbRZIARWTAecFtkDKZY-15" vertex="1">
          <mxGeometry x="100" y="40" width="70" height="40" as="geometry" />
        </mxCell>
        <mxCell id="aHbRZIARWTAecFtkDKZY-17" value="dsagent" style="whiteSpace=wrap;html=1;" parent="aHbRZIARWTAecFtkDKZY-15" vertex="1">
          <mxGeometry x="10" y="40" width="70" height="40" as="geometry" />
        </mxCell>
        <mxCell id="aHbRZIARWTAecFtkDKZY-21" value="Relay" style="swimlane;" parent="aHbRZIARWTAecFtkDKZY-1" vertex="1">
          <mxGeometry x="90" y="180" width="180" height="100" as="geometry" />
        </mxCell>
        <mxCell id="aHbRZIARWTAecFtkDKZY-22" value="relaysvr" style="whiteSpace=wrap;html=1;" parent="aHbRZIARWTAecFtkDKZY-21" vertex="1">
          <mxGeometry x="10" y="40" width="70" height="40" as="geometry" />
        </mxCell>
        <mxCell id="aHbRZIARWTAecFtkDKZY-23" value="relaysvr" style="whiteSpace=wrap;html=1;" parent="aHbRZIARWTAecFtkDKZY-21" vertex="1">
          <mxGeometry x="100" y="40" width="70" height="40" as="geometry" />
        </mxCell>
        <mxCell id="aHbRZIARWTAecFtkDKZY-24" value="DS" style="swimlane;" parent="aHbRZIARWTAecFtkDKZY-1" vertex="1">
          <mxGeometry x="320" y="310" width="180" height="100" as="geometry" />
        </mxCell>
        <mxCell id="aHbRZIARWTAecFtkDKZY-25" value="dssvr" style="whiteSpace=wrap;html=1;" parent="aHbRZIARWTAecFtkDKZY-24" vertex="1">
          <mxGeometry x="9" y="40" width="70" height="40" as="geometry" />
        </mxCell>
        <mxCell id="aHbRZIARWTAecFtkDKZY-26" value="dssvr" style="whiteSpace=wrap;html=1;" parent="aHbRZIARWTAecFtkDKZY-24" vertex="1">
          <mxGeometry x="100" y="40" width="70" height="40" as="geometry" />
        </mxCell>
        <mxCell id="aHbRZIARWTAecFtkDKZY-29" value="" style="endArrow=none;html=1;rounded=0;entryX=0.5;entryY=1;entryDx=0;entryDy=0;exitX=0.5;exitY=0;exitDx=0;exitDy=0;" parent="aHbRZIARWTAecFtkDKZY-1" source="aHbRZIARWTAecFtkDKZY-38" target="aHbRZIARWTAecFtkDKZY-21" edge="1">
          <mxGeometry width="50" height="50" relative="1" as="geometry">
            <mxPoint x="140" y="370" as="sourcePoint" />
            <mxPoint x="190" y="320" as="targetPoint" />
          </mxGeometry>
        </mxCell>
        <mxCell id="aHbRZIARWTAecFtkDKZY-34" value="" style="endArrow=none;dashed=1;html=1;rounded=0;entryX=0;entryY=0.5;entryDx=0;entryDy=0;exitX=1;exitY=0.5;exitDx=0;exitDy=0;" parent="aHbRZIARWTAecFtkDKZY-1" source="aHbRZIARWTAecFtkDKZY-38" target="aHbRZIARWTAecFtkDKZY-24" edge="1">
          <mxGeometry width="50" height="50" relative="1" as="geometry">
            <mxPoint x="270" y="430" as="sourcePoint" />
            <mxPoint x="310" y="370" as="targetPoint" />
          </mxGeometry>
        </mxCell>
        <mxCell id="aHbRZIARWTAecFtkDKZY-38" value="RelayAgent" style="swimlane;" parent="aHbRZIARWTAecFtkDKZY-1" vertex="1">
          <mxGeometry x="90" y="310" width="180" height="100" as="geometry" />
        </mxCell>
        <mxCell id="aHbRZIARWTAecFtkDKZY-39" value="relayagent" style="whiteSpace=wrap;html=1;" parent="aHbRZIARWTAecFtkDKZY-38" vertex="1">
          <mxGeometry x="100" y="40" width="70" height="40" as="geometry" />
        </mxCell>
        <mxCell id="aHbRZIARWTAecFtkDKZY-40" value="relayagent" style="whiteSpace=wrap;html=1;" parent="aHbRZIARWTAecFtkDKZY-38" vertex="1">
          <mxGeometry x="10" y="40" width="70" height="40" as="geometry" />
        </mxCell>
        <mxCell id="aHbRZIARWTAecFtkDKZY-41" value="DsCenter" style="swimlane;startSize=23;" parent="aHbRZIARWTAecFtkDKZY-1" vertex="1">
          <mxGeometry x="320" y="60" width="180" height="100" as="geometry" />
        </mxCell>
        <mxCell id="aHbRZIARWTAecFtkDKZY-42" value="dscenter" style="whiteSpace=wrap;html=1;" parent="aHbRZIARWTAecFtkDKZY-41" vertex="1">
          <mxGeometry x="100" y="40" width="70" height="40" as="geometry" />
        </mxCell>
        <mxCell id="aHbRZIARWTAecFtkDKZY-43" value="dscenter" style="whiteSpace=wrap;html=1;" parent="aHbRZIARWTAecFtkDKZY-41" vertex="1">
          <mxGeometry x="10" y="40" width="70" height="40" as="geometry" />
        </mxCell>
        <mxCell id="aHbRZIARWTAecFtkDKZY-47" value="" style="endArrow=none;html=1;rounded=0;entryX=0.5;entryY=1;entryDx=0;entryDy=0;exitX=0.5;exitY=0;exitDx=0;exitDy=0;exitPerimeter=0;" parent="aHbRZIARWTAecFtkDKZY-1" source="aHbRZIARWTAecFtkDKZY-15" target="aHbRZIARWTAecFtkDKZY-41" edge="1">
          <mxGeometry width="50" height="50" relative="1" as="geometry">
            <mxPoint x="390" y="210" as="sourcePoint" />
            <mxPoint x="440" y="160" as="targetPoint" />
          </mxGeometry>
        </mxCell>
        <mxCell id="aHbRZIARWTAecFtkDKZY-49" value="" style="endArrow=none;dashed=1;html=1;rounded=0;entryX=0.5;entryY=1;entryDx=0;entryDy=0;exitX=0.5;exitY=0;exitDx=0;exitDy=0;" parent="aHbRZIARWTAecFtkDKZY-1" source="aHbRZIARWTAecFtkDKZY-24" target="aHbRZIARWTAecFtkDKZY-15" edge="1">
          <mxGeometry width="50" height="50" relative="1" as="geometry">
            <mxPoint x="380" y="320" as="sourcePoint" />
            <mxPoint x="430" y="270" as="targetPoint" />
          </mxGeometry>
        </mxCell>
        <mxCell id="aHbRZIARWTAecFtkDKZY-51" value="" style="endArrow=none;dashed=1;html=1;rounded=0;exitX=1;exitY=0.5;exitDx=0;exitDy=0;entryX=0;entryY=0.5;entryDx=0;entryDy=0;" parent="aHbRZIARWTAecFtkDKZY-1" source="aHbRZIARWTAecFtkDKZY-24" target="aHbRZIARWTAecFtkDKZY-7" edge="1">
          <mxGeometry width="50" height="50" relative="1" as="geometry">
            <mxPoint x="120" y="110" as="sourcePoint" />
            <mxPoint x="930.7106781186548" y="680" as="targetPoint" />
          </mxGeometry>
        </mxCell>
        <mxCell id="aHbRZIARWTAecFtkDKZY-52" value="" style="endArrow=none;dashed=1;html=1;rounded=0;exitX=1;exitY=0.5;exitDx=0;exitDy=0;entryX=0;entryY=0.5;entryDx=0;entryDy=0;" parent="aHbRZIARWTAecFtkDKZY-1" source="aHbRZIARWTAecFtkDKZY-15" target="aHbRZIARWTAecFtkDKZY-2" edge="1">
          <mxGeometry width="50" height="50" relative="1" as="geometry">
            <mxPoint x="500" y="270" as="sourcePoint" />
            <mxPoint x="550" y="220" as="targetPoint" />
          </mxGeometry>
        </mxCell>
        <mxCell id="aHbRZIARWTAecFtkDKZY-53" value="" style="endArrow=none;html=1;rounded=0;entryX=0.5;entryY=1;entryDx=0;entryDy=0;exitX=0.5;exitY=0;exitDx=0;exitDy=0;" parent="aHbRZIARWTAecFtkDKZY-1" source="aHbRZIARWTAecFtkDKZY-21" target="aHbRZIARWTAecFtkDKZY-10" edge="1">
          <mxGeometry width="50" height="50" relative="1" as="geometry">
            <mxPoint x="170" y="210" as="sourcePoint" />
            <mxPoint x="220" y="160" as="targetPoint" />
          </mxGeometry>
        </mxCell>
        <mxCell id="aHbRZIARWTAecFtkDKZY-54" value="" style="endArrow=none;html=1;rounded=0;" parent="aHbRZIARWTAecFtkDKZY-1" edge="1">
          <mxGeometry width="50" height="50" relative="1" as="geometry">
            <mxPoint x="270" y="120" as="sourcePoint" />
            <mxPoint x="320" y="120" as="targetPoint" />
          </mxGeometry>
        </mxCell>
        <mxCell id="jtC3OGg0_ZfLIY8pYDg6-36" value="&lt;b&gt;&lt;font style=&quot;font-size: 24px&quot; color=&quot;#330000&quot;&gt;业务侧&lt;/font&gt;&lt;/b&gt;" style="text;html=1;align=center;verticalAlign=middle;resizable=0;points=[];autosize=1;strokeColor=none;fillColor=none;fontSize=18;fontColor=#FF0000;" parent="aHbRZIARWTAecFtkDKZY-1" vertex="1">
          <mxGeometry x="251" y="439" width="90" height="30" as="geometry" />
        </mxCell>
        <mxCell id="jtC3OGg0_ZfLIY8pYDg6-37" value="&lt;b&gt;&lt;font style=&quot;font-size: 24px&quot; color=&quot;#330000&quot;&gt;AI侧&lt;/font&gt;&lt;/b&gt;" style="text;html=1;align=center;verticalAlign=middle;resizable=0;points=[];autosize=1;strokeColor=none;fillColor=none;fontSize=18;fontColor=#FF0000;" parent="aHbRZIARWTAecFtkDKZY-1" vertex="1">
          <mxGeometry x="610" y="444" width="60" height="30" as="geometry" />
        </mxCell>
        <mxCell id="QPOXfWb_KmAo6B6VZnVw-0" value="" style="endArrow=none;dashed=1;html=1;rounded=0;fontSize=18;fontColor=#FF0000;strokeWidth=2;" parent="aHbRZIARWTAecFtkDKZY-1" edge="1">
          <mxGeometry width="50" height="50" relative="1" as="geometry">
            <mxPoint x="525" y="494" as="sourcePoint" />
            <mxPoint x="525" y="18" as="targetPoint" />
          </mxGeometry>
        </mxCell>
      </root>
    </mxGraphModel>
  </diagram>
  <diagram id="2STJWsbimgQR2f7koZ5o" name="NISHIKI AI">
    <mxGraphModel dx="2062" dy="1114" grid="0" gridSize="10" guides="1" tooltips="1" connect="1" arrows="1" fold="1" page="1" pageScale="1" pageWidth="827" pageHeight="1169" math="0" shadow="0">
      <root>
        <mxCell id="2Ao4ZpsVJw9oH1wQN9Oj-0" />
        <mxCell id="2Ao4ZpsVJw9oH1wQN9Oj-1" parent="2Ao4ZpsVJw9oH1wQN9Oj-0" />
        <mxCell id="hXbDXXZGQUkt6A6cglB6-0" value="" style="rounded=0;whiteSpace=wrap;html=1;dashed=1;strokeWidth=3;fillColor=none;" parent="2Ao4ZpsVJw9oH1wQN9Oj-1" vertex="1">
          <mxGeometry x="220" y="560" width="550" height="410" as="geometry" />
        </mxCell>
        <mxCell id="hXbDXXZGQUkt6A6cglB6-1" value="AIProxy" style="swimlane;" parent="2Ao4ZpsVJw9oH1wQN9Oj-1" vertex="1">
          <mxGeometry x="550" y="715" width="180" height="100" as="geometry" />
        </mxCell>
        <mxCell id="hXbDXXZGQUkt6A6cglB6-2" value="aiproxy" style="whiteSpace=wrap;html=1;" parent="hXbDXXZGQUkt6A6cglB6-1" vertex="1">
          <mxGeometry x="10" y="40" width="70" height="40" as="geometry" />
        </mxCell>
        <mxCell id="hXbDXXZGQUkt6A6cglB6-3" value="aiproxy" style="whiteSpace=wrap;html=1;" parent="hXbDXXZGQUkt6A6cglB6-1" vertex="1">
          <mxGeometry x="100" y="40" width="70" height="40" as="geometry" />
        </mxCell>
        <mxCell id="hXbDXXZGQUkt6A6cglB6-4" value="AISvr" style="swimlane;" parent="2Ao4ZpsVJw9oH1wQN9Oj-1" vertex="1">
          <mxGeometry x="550" y="845" width="180" height="100" as="geometry" />
        </mxCell>
        <mxCell id="hXbDXXZGQUkt6A6cglB6-5" value="aisvr" style="whiteSpace=wrap;html=1;" parent="hXbDXXZGQUkt6A6cglB6-4" vertex="1">
          <mxGeometry x="10" y="40" width="70" height="40" as="geometry" />
        </mxCell>
        <mxCell id="hXbDXXZGQUkt6A6cglB6-6" value="aisvr" style="whiteSpace=wrap;html=1;" parent="hXbDXXZGQUkt6A6cglB6-4" vertex="1">
          <mxGeometry x="100" y="40" width="70" height="40" as="geometry" />
        </mxCell>
        <mxCell id="hXbDXXZGQUkt6A6cglB6-7" value="Match" style="swimlane;" parent="2Ao4ZpsVJw9oH1wQN9Oj-1" vertex="1">
          <mxGeometry x="10" y="465" width="180" height="100" as="geometry" />
        </mxCell>
        <mxCell id="hXbDXXZGQUkt6A6cglB6-8" value="matchsvr" style="whiteSpace=wrap;html=1;" parent="hXbDXXZGQUkt6A6cglB6-7" vertex="1">
          <mxGeometry x="10" y="40" width="70" height="40" as="geometry" />
        </mxCell>
        <mxCell id="hXbDXXZGQUkt6A6cglB6-9" value="matchsvr" style="whiteSpace=wrap;html=1;" parent="hXbDXXZGQUkt6A6cglB6-7" vertex="1">
          <mxGeometry x="100" y="40" width="70" height="40" as="geometry" />
        </mxCell>
        <mxCell id="hXbDXXZGQUkt6A6cglB6-10" value="DsAgent" style="swimlane;" parent="2Ao4ZpsVJw9oH1wQN9Oj-1" vertex="1">
          <mxGeometry x="240" y="585" width="180" height="100" as="geometry" />
        </mxCell>
        <mxCell id="hXbDXXZGQUkt6A6cglB6-11" value="dsagent" style="whiteSpace=wrap;html=1;" parent="hXbDXXZGQUkt6A6cglB6-10" vertex="1">
          <mxGeometry x="100" y="40" width="70" height="40" as="geometry" />
        </mxCell>
        <mxCell id="hXbDXXZGQUkt6A6cglB6-12" value="dsagent" style="whiteSpace=wrap;html=1;" parent="hXbDXXZGQUkt6A6cglB6-10" vertex="1">
          <mxGeometry x="10" y="40" width="70" height="40" as="geometry" />
        </mxCell>
        <mxCell id="hXbDXXZGQUkt6A6cglB6-13" value="Relay" style="swimlane;" parent="2Ao4ZpsVJw9oH1wQN9Oj-1" vertex="1">
          <mxGeometry x="10" y="585" width="180" height="100" as="geometry" />
        </mxCell>
        <mxCell id="hXbDXXZGQUkt6A6cglB6-14" value="relaysvr" style="whiteSpace=wrap;html=1;" parent="hXbDXXZGQUkt6A6cglB6-13" vertex="1">
          <mxGeometry x="10" y="40" width="70" height="40" as="geometry" />
        </mxCell>
        <mxCell id="hXbDXXZGQUkt6A6cglB6-15" value="relaysvr" style="whiteSpace=wrap;html=1;" parent="hXbDXXZGQUkt6A6cglB6-13" vertex="1">
          <mxGeometry x="100" y="40" width="70" height="40" as="geometry" />
        </mxCell>
        <mxCell id="hXbDXXZGQUkt6A6cglB6-16" value="DS" style="swimlane;" parent="2Ao4ZpsVJw9oH1wQN9Oj-1" vertex="1">
          <mxGeometry x="240" y="715" width="180" height="100" as="geometry" />
        </mxCell>
        <mxCell id="hXbDXXZGQUkt6A6cglB6-17" value="dssvr" style="whiteSpace=wrap;html=1;" parent="hXbDXXZGQUkt6A6cglB6-16" vertex="1">
          <mxGeometry x="9" y="40" width="70" height="40" as="geometry" />
        </mxCell>
        <mxCell id="hXbDXXZGQUkt6A6cglB6-18" value="dssvr" style="whiteSpace=wrap;html=1;" parent="hXbDXXZGQUkt6A6cglB6-16" vertex="1">
          <mxGeometry x="100" y="40" width="70" height="40" as="geometry" />
        </mxCell>
        <mxCell id="hXbDXXZGQUkt6A6cglB6-19" value="" style="endArrow=none;dashed=1;html=1;rounded=0;entryX=0.5;entryY=1;entryDx=0;entryDy=0;exitX=0.5;exitY=0;exitDx=0;exitDy=0;" parent="2Ao4ZpsVJw9oH1wQN9Oj-1" source="hXbDXXZGQUkt6A6cglB6-16" target="hXbDXXZGQUkt6A6cglB6-10" edge="1">
          <mxGeometry width="50" height="50" relative="1" as="geometry">
            <mxPoint x="300" y="725" as="sourcePoint" />
            <mxPoint x="350" y="675" as="targetPoint" />
          </mxGeometry>
        </mxCell>
        <mxCell id="hXbDXXZGQUkt6A6cglB6-20" value="" style="endArrow=none;dashed=1;html=1;rounded=0;exitX=1;exitY=0.5;exitDx=0;exitDy=0;entryX=0;entryY=0.5;entryDx=0;entryDy=0;" parent="2Ao4ZpsVJw9oH1wQN9Oj-1" source="hXbDXXZGQUkt6A6cglB6-16" target="hXbDXXZGQUkt6A6cglB6-1" edge="1">
          <mxGeometry width="50" height="50" relative="1" as="geometry">
            <mxPoint x="500" y="680" as="sourcePoint" />
            <mxPoint x="550" y="630" as="targetPoint" />
          </mxGeometry>
        </mxCell>
        <mxCell id="hXbDXXZGQUkt6A6cglB6-21" value="" style="endArrow=none;html=1;rounded=0;entryX=0.5;entryY=1;entryDx=0;entryDy=0;exitX=0.5;exitY=0;exitDx=0;exitDy=0;" parent="2Ao4ZpsVJw9oH1wQN9Oj-1" source="hXbDXXZGQUkt6A6cglB6-13" target="hXbDXXZGQUkt6A6cglB6-7" edge="1">
          <mxGeometry width="50" height="50" relative="1" as="geometry">
            <mxPoint x="90" y="615" as="sourcePoint" />
            <mxPoint x="140" y="565" as="targetPoint" />
          </mxGeometry>
        </mxCell>
        <mxCell id="hXbDXXZGQUkt6A6cglB6-22" value="" style="endArrow=none;html=1;rounded=0;entryX=0.5;entryY=0;entryDx=0;entryDy=0;" parent="2Ao4ZpsVJw9oH1wQN9Oj-1" target="hXbDXXZGQUkt6A6cglB6-10" edge="1">
          <mxGeometry width="50" height="50" relative="1" as="geometry">
            <mxPoint x="190" y="525" as="sourcePoint" />
            <mxPoint x="240" y="525" as="targetPoint" />
            <Array as="points">
              <mxPoint x="330" y="525" />
            </Array>
          </mxGeometry>
        </mxCell>
        <mxCell id="hXbDXXZGQUkt6A6cglB6-23" value="负载均衡" style="edgeLabel;html=1;align=center;verticalAlign=middle;resizable=0;points=[];" parent="hXbDXXZGQUkt6A6cglB6-22" vertex="1" connectable="0">
          <mxGeometry x="0.106" y="-1" relative="1" as="geometry">
            <mxPoint x="-31" y="-1" as="offset" />
          </mxGeometry>
        </mxCell>
        <mxCell id="hXbDXXZGQUkt6A6cglB6-24" value="" style="endArrow=none;html=1;rounded=0;entryX=0.5;entryY=1;entryDx=0;entryDy=0;exitX=0.5;exitY=0;exitDx=0;exitDy=0;" parent="2Ao4ZpsVJw9oH1wQN9Oj-1" source="hXbDXXZGQUkt6A6cglB6-4" target="hXbDXXZGQUkt6A6cglB6-1" edge="1">
          <mxGeometry width="50" height="50" relative="1" as="geometry">
            <mxPoint x="620" y="865" as="sourcePoint" />
            <mxPoint x="670" y="815" as="targetPoint" />
          </mxGeometry>
        </mxCell>
        <mxCell id="hXbDXXZGQUkt6A6cglB6-25" value="" style="endArrow=none;dashed=1;html=1;rounded=0;entryX=0.5;entryY=1;entryDx=0;entryDy=0;exitX=0;exitY=0.5;exitDx=0;exitDy=0;" parent="2Ao4ZpsVJw9oH1wQN9Oj-1" source="hXbDXXZGQUkt6A6cglB6-16" target="hXbDXXZGQUkt6A6cglB6-13" edge="1">
          <mxGeometry width="50" height="50" relative="1" as="geometry">
            <mxPoint x="100" y="735" as="sourcePoint" />
            <mxPoint x="150" y="685" as="targetPoint" />
            <Array as="points">
              <mxPoint x="100" y="765" />
            </Array>
          </mxGeometry>
        </mxCell>
        <mxCell id="hXbDXXZGQUkt6A6cglB6-26" value="" style="endArrow=classic;html=1;rounded=0;" parent="2Ao4ZpsVJw9oH1wQN9Oj-1" edge="1">
          <mxGeometry width="50" height="50" relative="1" as="geometry">
            <mxPoint x="120" y="750" as="sourcePoint" />
            <mxPoint x="180" y="750" as="targetPoint" />
          </mxGeometry>
        </mxCell>
        <mxCell id="hXbDXXZGQUkt6A6cglB6-27" value="帧广播" style="edgeLabel;html=1;align=center;verticalAlign=middle;resizable=0;points=[];" parent="hXbDXXZGQUkt6A6cglB6-26" vertex="1" connectable="0">
          <mxGeometry x="-0.5133" y="3" relative="1" as="geometry">
            <mxPoint x="15" y="-7" as="offset" />
          </mxGeometry>
        </mxCell>
        <mxCell id="hXbDXXZGQUkt6A6cglB6-28" value="" style="endArrow=classic;html=1;rounded=0;" parent="2Ao4ZpsVJw9oH1wQN9Oj-1" edge="1">
          <mxGeometry width="50" height="50" relative="1" as="geometry">
            <mxPoint x="122" y="789" as="sourcePoint" />
            <mxPoint x="120" y="789" as="targetPoint" />
            <Array as="points">
              <mxPoint x="180" y="789" />
            </Array>
          </mxGeometry>
        </mxCell>
        <mxCell id="hXbDXXZGQUkt6A6cglB6-29" value="AI帧命令" style="edgeLabel;html=1;align=center;verticalAlign=middle;resizable=0;points=[];" parent="hXbDXXZGQUkt6A6cglB6-28" vertex="1" connectable="0">
          <mxGeometry x="-0.5133" y="3" relative="1" as="geometry">
            <mxPoint x="-1" y="-7" as="offset" />
          </mxGeometry>
        </mxCell>
        <mxCell id="hXbDXXZGQUkt6A6cglB6-30" value="" style="endArrow=classic;html=1;rounded=0;" parent="2Ao4ZpsVJw9oH1wQN9Oj-1" edge="1">
          <mxGeometry width="50" height="50" relative="1" as="geometry">
            <mxPoint x="450.0000000000002" y="750" as="sourcePoint" />
            <mxPoint x="510.0000000000002" y="750" as="targetPoint" />
          </mxGeometry>
        </mxCell>
        <mxCell id="hXbDXXZGQUkt6A6cglB6-31" value="盘面信息" style="edgeLabel;html=1;align=center;verticalAlign=middle;resizable=0;points=[];" parent="hXbDXXZGQUkt6A6cglB6-30" vertex="1" connectable="0">
          <mxGeometry x="-0.5133" y="3" relative="1" as="geometry">
            <mxPoint x="15" y="-7" as="offset" />
          </mxGeometry>
        </mxCell>
        <mxCell id="hXbDXXZGQUkt6A6cglB6-32" value="" style="endArrow=classic;html=1;rounded=0;" parent="2Ao4ZpsVJw9oH1wQN9Oj-1" edge="1">
          <mxGeometry width="50" height="50" relative="1" as="geometry">
            <mxPoint x="451.9999999999998" y="794" as="sourcePoint" />
            <mxPoint x="450.0000000000002" y="794" as="targetPoint" />
            <Array as="points">
              <mxPoint x="510" y="794" />
            </Array>
          </mxGeometry>
        </mxCell>
        <mxCell id="hXbDXXZGQUkt6A6cglB6-33" value="AI指令" style="edgeLabel;html=1;align=center;verticalAlign=middle;resizable=0;points=[];" parent="hXbDXXZGQUkt6A6cglB6-32" vertex="1" connectable="0">
          <mxGeometry x="-0.5133" y="3" relative="1" as="geometry">
            <mxPoint x="-1" y="-7" as="offset" />
          </mxGeometry>
        </mxCell>
        <mxCell id="hXbDXXZGQUkt6A6cglB6-34" value="&lt;font style=&quot;font-size: 24px&quot; color=&quot;#ff0000&quot;&gt;&lt;b&gt;同机房，同子网&lt;/b&gt;&lt;/font&gt;" style="text;html=1;align=center;verticalAlign=middle;resizable=0;points=[];autosize=1;strokeColor=none;fillColor=none;" parent="2Ao4ZpsVJw9oH1wQN9Oj-1" vertex="1">
          <mxGeometry x="450" y="575" width="180" height="20" as="geometry" />
        </mxCell>
        <mxCell id="hXbDXXZGQUkt6A6cglB6-35" value="" style="endArrow=none;dashed=1;html=1;rounded=0;fontSize=18;fontColor=#FF0000;strokeWidth=2;" parent="2Ao4ZpsVJw9oH1wQN9Oj-1" edge="1">
          <mxGeometry width="50" height="50" relative="1" as="geometry">
            <mxPoint x="440.0000000000002" y="1059.9999999999998" as="sourcePoint" />
            <mxPoint x="440.0000000000002" y="450" as="targetPoint" />
          </mxGeometry>
        </mxCell>
        <mxCell id="hXbDXXZGQUkt6A6cglB6-36" value="&lt;b&gt;&lt;font style=&quot;font-size: 24px&quot; color=&quot;#330000&quot;&gt;业务侧&lt;/font&gt;&lt;/b&gt;" style="text;html=1;align=center;verticalAlign=middle;resizable=0;points=[];autosize=1;strokeColor=none;fillColor=none;fontSize=18;fontColor=#FF0000;" parent="2Ao4ZpsVJw9oH1wQN9Oj-1" vertex="1">
          <mxGeometry x="125" y="990" width="90" height="30" as="geometry" />
        </mxCell>
        <mxCell id="hXbDXXZGQUkt6A6cglB6-37" value="&lt;b&gt;&lt;font style=&quot;font-size: 24px&quot; color=&quot;#330000&quot;&gt;AI侧&lt;/font&gt;&lt;/b&gt;" style="text;html=1;align=center;verticalAlign=middle;resizable=0;points=[];autosize=1;strokeColor=none;fillColor=none;fontSize=18;fontColor=#FF0000;" parent="2Ao4ZpsVJw9oH1wQN9Oj-1" vertex="1">
          <mxGeometry x="575" y="990" width="60" height="30" as="geometry" />
        </mxCell>
      </root>
    </mxGraphModel>
  </diagram>
  <diagram id="dov6WJ6caeMtDobz2iHI" name="NISHIKI AI 扩缩容">
    <mxGraphModel dx="1550" dy="827" grid="1" gridSize="10" guides="1" tooltips="1" connect="1" arrows="1" fold="1" page="1" pageScale="1" pageWidth="827" pageHeight="1169" math="0" shadow="0">
      <root>
        <mxCell id="v4cSZ5vyuLBC8fGyZKLN-0" />
        <mxCell id="v4cSZ5vyuLBC8fGyZKLN-1" parent="v4cSZ5vyuLBC8fGyZKLN-0" />
        <mxCell id="v4cSZ5vyuLBC8fGyZKLN-5" value="matchsvr" style="shape=umlLifeline;participant=umlEntity;perimeter=lifelinePerimeter;whiteSpace=wrap;html=1;container=1;collapsible=0;recursiveResize=0;verticalAlign=top;spacingTop=36;outlineConnect=0;" parent="v4cSZ5vyuLBC8fGyZKLN-1" vertex="1">
          <mxGeometry x="40" y="40" width="40" height="410" as="geometry" />
        </mxCell>
        <mxCell id="v4cSZ5vyuLBC8fGyZKLN-10" value="上报带test标签的心跳" style="html=1;verticalAlign=bottom;endArrow=open;dashed=1;endSize=8;rounded=0;" parent="v4cSZ5vyuLBC8fGyZKLN-5" source="v4cSZ5vyuLBC8fGyZKLN-7" edge="1">
          <mxGeometry relative="1" as="geometry">
            <mxPoint x="100" y="80" as="sourcePoint" />
            <mxPoint x="20" y="80" as="targetPoint" />
          </mxGeometry>
        </mxCell>
        <mxCell id="v4cSZ5vyuLBC8fGyZKLN-12" value="请求对于idc区域的relay开启假单局" style="html=1;verticalAlign=bottom;endArrow=block;rounded=0;" parent="v4cSZ5vyuLBC8fGyZKLN-5" target="v4cSZ5vyuLBC8fGyZKLN-6" edge="1">
          <mxGeometry width="80" relative="1" as="geometry">
            <mxPoint x="20" y="110" as="sourcePoint" />
            <mxPoint x="100" y="110" as="targetPoint" />
          </mxGeometry>
        </mxCell>
        <mxCell id="v4cSZ5vyuLBC8fGyZKLN-23" value="" style="html=1;points=[];perimeter=orthogonalPerimeter;dashed=1;fillColor=none;" parent="v4cSZ5vyuLBC8fGyZKLN-5" vertex="1">
          <mxGeometry x="15" y="370" width="10" height="40" as="geometry" />
        </mxCell>
        <mxCell id="v4cSZ5vyuLBC8fGyZKLN-24" value="运维检测日志、对外dsagent" style="edgeStyle=orthogonalEdgeStyle;html=1;align=left;spacingLeft=2;endArrow=block;rounded=0;entryX=1;entryY=0;" parent="v4cSZ5vyuLBC8fGyZKLN-5" target="v4cSZ5vyuLBC8fGyZKLN-23" edge="1">
          <mxGeometry relative="1" as="geometry">
            <mxPoint x="20" y="350" as="sourcePoint" />
            <Array as="points">
              <mxPoint x="50" y="350" />
            </Array>
          </mxGeometry>
        </mxCell>
        <mxCell id="v4cSZ5vyuLBC8fGyZKLN-6" value="relaysvr" style="shape=umlLifeline;participant=umlEntity;perimeter=lifelinePerimeter;whiteSpace=wrap;html=1;container=1;collapsible=0;recursiveResize=0;verticalAlign=top;spacingTop=36;outlineConnect=0;" parent="v4cSZ5vyuLBC8fGyZKLN-1" vertex="1">
          <mxGeometry x="200" y="40" width="40" height="360" as="geometry" />
        </mxCell>
        <mxCell id="v4cSZ5vyuLBC8fGyZKLN-13" value="" style="html=1;points=[];perimeter=orthogonalPerimeter;" parent="v4cSZ5vyuLBC8fGyZKLN-6" vertex="1">
          <mxGeometry x="15" y="150" width="10" height="40" as="geometry" />
        </mxCell>
        <mxCell id="v4cSZ5vyuLBC8fGyZKLN-14" value="解析abs文件，获取beginload" style="edgeStyle=orthogonalEdgeStyle;html=1;align=left;spacingLeft=2;endArrow=block;rounded=0;entryX=1;entryY=0;" parent="v4cSZ5vyuLBC8fGyZKLN-6" target="v4cSZ5vyuLBC8fGyZKLN-13" edge="1">
          <mxGeometry relative="1" as="geometry">
            <mxPoint x="20" y="130" as="sourcePoint" />
            <Array as="points">
              <mxPoint x="50" y="130" />
            </Array>
          </mxGeometry>
        </mxCell>
        <mxCell id="v4cSZ5vyuLBC8fGyZKLN-15" value="alloc ds" style="html=1;verticalAlign=bottom;endArrow=block;rounded=0;" parent="v4cSZ5vyuLBC8fGyZKLN-6" target="v4cSZ5vyuLBC8fGyZKLN-7" edge="1">
          <mxGeometry width="80" relative="1" as="geometry">
            <mxPoint x="20" y="210" as="sourcePoint" />
            <mxPoint x="100" y="210" as="targetPoint" />
          </mxGeometry>
        </mxCell>
        <mxCell id="v4cSZ5vyuLBC8fGyZKLN-7" value="new dsagent" style="shape=umlLifeline;participant=umlEntity;perimeter=lifelinePerimeter;whiteSpace=wrap;html=1;container=1;collapsible=0;recursiveResize=0;verticalAlign=top;spacingTop=36;outlineConnect=0;" parent="v4cSZ5vyuLBC8fGyZKLN-1" vertex="1">
          <mxGeometry x="360" y="40" width="40" height="360" as="geometry" />
        </mxCell>
        <mxCell id="v4cSZ5vyuLBC8fGyZKLN-17" value="alloc ds" style="html=1;verticalAlign=bottom;endArrow=block;rounded=0;" parent="v4cSZ5vyuLBC8fGyZKLN-7" target="v4cSZ5vyuLBC8fGyZKLN-8" edge="1">
          <mxGeometry width="80" relative="1" as="geometry">
            <mxPoint x="20" y="220" as="sourcePoint" />
            <mxPoint x="100" y="220" as="targetPoint" />
          </mxGeometry>
        </mxCell>
        <mxCell id="v4cSZ5vyuLBC8fGyZKLN-8" value="dssvr" style="shape=umlLifeline;participant=umlEntity;perimeter=lifelinePerimeter;whiteSpace=wrap;html=1;container=1;collapsible=0;recursiveResize=0;verticalAlign=top;spacingTop=36;outlineConnect=0;" parent="v4cSZ5vyuLBC8fGyZKLN-1" vertex="1">
          <mxGeometry x="520" y="40" width="40" height="300" as="geometry" />
        </mxCell>
        <mxCell id="v4cSZ5vyuLBC8fGyZKLN-9" value="aiproxy" style="shape=umlLifeline;participant=umlEntity;perimeter=lifelinePerimeter;whiteSpace=wrap;html=1;container=1;collapsible=0;recursiveResize=0;verticalAlign=top;spacingTop=36;outlineConnect=0;" parent="v4cSZ5vyuLBC8fGyZKLN-1" vertex="1">
          <mxGeometry x="680" y="40" width="40" height="300" as="geometry" />
        </mxCell>
        <mxCell id="v4cSZ5vyuLBC8fGyZKLN-21" value="对局流程" style="rounded=0;whiteSpace=wrap;html=1;dashed=1;fillColor=default;" parent="v4cSZ5vyuLBC8fGyZKLN-1" vertex="1">
          <mxGeometry x="120" y="270" width="650" height="50" as="geometry" />
        </mxCell>
        <mxCell id="v4cSZ5vyuLBC8fGyZKLN-22" value="通知对局流程结束" style="html=1;verticalAlign=bottom;endArrow=open;dashed=1;endSize=8;rounded=0;" parent="v4cSZ5vyuLBC8fGyZKLN-1" source="v4cSZ5vyuLBC8fGyZKLN-7" target="v4cSZ5vyuLBC8fGyZKLN-5" edge="1">
          <mxGeometry relative="1" as="geometry">
            <mxPoint x="350" y="340" as="sourcePoint" />
            <mxPoint x="140" y="340" as="targetPoint" />
            <Array as="points">
              <mxPoint x="90" y="350" />
            </Array>
          </mxGeometry>
        </mxCell>
      </root>
    </mxGraphModel>
  </diagram>
  <diagram id="yHHeBL9n6lFbGlvDLgZD" name="NISHIKI AI过载保护">
    <mxGraphModel dx="2062" dy="1114" grid="0" gridSize="10" guides="1" tooltips="1" connect="1" arrows="1" fold="1" page="1" pageScale="1" pageWidth="827" pageHeight="1169" math="0" shadow="0">
      <root>
        <mxCell id="YYPZJ4RdeXrvbc8DDNwJ-0" />
        <mxCell id="YYPZJ4RdeXrvbc8DDNwJ-1" parent="YYPZJ4RdeXrvbc8DDNwJ-0" />
        <mxCell id="tHsY2usxZLXycbhT2eaR-0" value="MatchSvr" style="rounded=0;whiteSpace=wrap;html=1;fillColor=#dae8fc;strokeColor=#6c8ebf;" parent="YYPZJ4RdeXrvbc8DDNwJ-1" vertex="1">
          <mxGeometry x="140" y="108" width="120" height="60" as="geometry" />
        </mxCell>
        <mxCell id="tHsY2usxZLXycbhT2eaR-1" value="DSAgent" style="rounded=0;whiteSpace=wrap;html=1;fillColor=#dae8fc;strokeColor=#6c8ebf;" parent="YYPZJ4RdeXrvbc8DDNwJ-1" vertex="1">
          <mxGeometry x="140" y="220" width="120" height="60" as="geometry" />
        </mxCell>
        <mxCell id="tHsY2usxZLXycbhT2eaR-2" value="" style="endArrow=classic;html=1;rounded=0;entryX=0.5;entryY=1;entryDx=0;entryDy=0;exitX=0.5;exitY=0;exitDx=0;exitDy=0;" parent="YYPZJ4RdeXrvbc8DDNwJ-1" source="tHsY2usxZLXycbhT2eaR-1" target="tHsY2usxZLXycbhT2eaR-0" edge="1">
          <mxGeometry width="50" height="50" relative="1" as="geometry">
            <mxPoint x="170" y="230" as="sourcePoint" />
            <mxPoint x="220" y="180" as="targetPoint" />
          </mxGeometry>
        </mxCell>
        <mxCell id="tHsY2usxZLXycbhT2eaR-13" value="&lt;span style=&quot;font-weight: 700 ; background-color: rgb(248 , 249 , 250)&quot;&gt;上报AISvr和DS负载&lt;/span&gt;" style="edgeLabel;html=1;align=center;verticalAlign=middle;resizable=0;points=[];fontSize=13;" parent="tHsY2usxZLXycbhT2eaR-2" vertex="1" connectable="0">
          <mxGeometry x="-0.365" y="-2" relative="1" as="geometry">
            <mxPoint x="-2" y="-15" as="offset" />
          </mxGeometry>
        </mxCell>
        <mxCell id="tHsY2usxZLXycbhT2eaR-10" style="edgeStyle=orthogonalEdgeStyle;rounded=0;orthogonalLoop=1;jettySize=auto;html=1;exitX=0;exitY=0.5;exitDx=0;exitDy=0;entryX=1;entryY=0.5;entryDx=0;entryDy=0;" parent="YYPZJ4RdeXrvbc8DDNwJ-1" source="tHsY2usxZLXycbhT2eaR-3" target="tHsY2usxZLXycbhT2eaR-6" edge="1">
          <mxGeometry relative="1" as="geometry" />
        </mxCell>
        <mxCell id="tHsY2usxZLXycbhT2eaR-3" value="AIProxy" style="rounded=0;whiteSpace=wrap;html=1;fillColor=#d5e8d4;strokeColor=#82b366;" parent="YYPZJ4RdeXrvbc8DDNwJ-1" vertex="1">
          <mxGeometry x="388" y="332" width="120" height="60" as="geometry" />
        </mxCell>
        <mxCell id="tHsY2usxZLXycbhT2eaR-4" value="AIMaster" style="rounded=0;whiteSpace=wrap;html=1;fillColor=#d5e8d4;strokeColor=#82b366;" parent="YYPZJ4RdeXrvbc8DDNwJ-1" vertex="1">
          <mxGeometry x="388" y="438" width="120" height="60" as="geometry" />
        </mxCell>
        <mxCell id="tHsY2usxZLXycbhT2eaR-5" value="AIServer" style="rounded=0;whiteSpace=wrap;html=1;fillColor=#d5e8d4;strokeColor=#82b366;" parent="YYPZJ4RdeXrvbc8DDNwJ-1" vertex="1">
          <mxGeometry x="388" y="543" width="120" height="60" as="geometry" />
        </mxCell>
        <mxCell id="tHsY2usxZLXycbhT2eaR-6" value="DS" style="rounded=0;whiteSpace=wrap;html=1;fillColor=#dae8fc;strokeColor=#6c8ebf;" parent="YYPZJ4RdeXrvbc8DDNwJ-1" vertex="1">
          <mxGeometry x="140" y="332" width="120" height="60" as="geometry" />
        </mxCell>
        <mxCell id="tHsY2usxZLXycbhT2eaR-7" value="" style="endArrow=classic;html=1;rounded=0;entryX=0.5;entryY=1;entryDx=0;entryDy=0;exitX=0.5;exitY=0;exitDx=0;exitDy=0;" parent="YYPZJ4RdeXrvbc8DDNwJ-1" source="tHsY2usxZLXycbhT2eaR-6" target="tHsY2usxZLXycbhT2eaR-1" edge="1">
          <mxGeometry width="50" height="50" relative="1" as="geometry">
            <mxPoint x="180" y="360" as="sourcePoint" />
            <mxPoint x="230" y="310" as="targetPoint" />
          </mxGeometry>
        </mxCell>
        <mxCell id="tHsY2usxZLXycbhT2eaR-14" value="&lt;span style=&quot;background-color: rgb(248 , 249 , 250)&quot;&gt;&lt;b&gt;上报AISvr和DS负载&lt;/b&gt;&lt;/span&gt;" style="edgeLabel;html=1;align=center;verticalAlign=middle;resizable=0;points=[];fontSize=13;" parent="tHsY2usxZLXycbhT2eaR-7" vertex="1" connectable="0">
          <mxGeometry x="-0.315" y="-2" relative="1" as="geometry">
            <mxPoint x="-2" y="-8" as="offset" />
          </mxGeometry>
        </mxCell>
        <mxCell id="tHsY2usxZLXycbhT2eaR-8" value="" style="endArrow=classic;html=1;rounded=0;entryX=0.5;entryY=1;entryDx=0;entryDy=0;exitX=0.5;exitY=0;exitDx=0;exitDy=0;" parent="YYPZJ4RdeXrvbc8DDNwJ-1" source="tHsY2usxZLXycbhT2eaR-4" target="tHsY2usxZLXycbhT2eaR-3" edge="1">
          <mxGeometry width="50" height="50" relative="1" as="geometry">
            <mxPoint x="490" y="480" as="sourcePoint" />
            <mxPoint x="540" y="430" as="targetPoint" />
          </mxGeometry>
        </mxCell>
        <mxCell id="tHsY2usxZLXycbhT2eaR-15" value="上报AISvr负载" style="edgeLabel;html=1;align=center;verticalAlign=middle;resizable=0;points=[];fontSize=13;fontStyle=1" parent="tHsY2usxZLXycbhT2eaR-8" vertex="1" connectable="0">
          <mxGeometry x="-0.3533" relative="1" as="geometry">
            <mxPoint x="-4" y="-9" as="offset" />
          </mxGeometry>
        </mxCell>
        <mxCell id="tHsY2usxZLXycbhT2eaR-18" value="" style="endArrow=classic;html=1;rounded=0;exitX=0.5;exitY=0;exitDx=0;exitDy=0;entryX=0.5;entryY=1;entryDx=0;entryDy=0;" parent="YYPZJ4RdeXrvbc8DDNwJ-1" source="tHsY2usxZLXycbhT2eaR-5" target="tHsY2usxZLXycbhT2eaR-4" edge="1">
          <mxGeometry width="50" height="50" relative="1" as="geometry">
            <mxPoint x="520" y="490" as="sourcePoint" />
            <mxPoint x="510" y="539" as="targetPoint" />
          </mxGeometry>
        </mxCell>
        <mxCell id="tHsY2usxZLXycbhT2eaR-19" value="上报AISvr负载" style="edgeLabel;html=1;align=center;verticalAlign=middle;resizable=0;points=[];fontSize=13;fontStyle=1" parent="tHsY2usxZLXycbhT2eaR-18" vertex="1" connectable="0">
          <mxGeometry x="-0.3533" relative="1" as="geometry">
            <mxPoint x="-4" y="-9" as="offset" />
          </mxGeometry>
        </mxCell>
        <mxCell id="tHsY2usxZLXycbhT2eaR-20" value="" style="endArrow=classic;html=1;rounded=0;fontSize=14;strokeWidth=6;" parent="YYPZJ4RdeXrvbc8DDNwJ-1" edge="1">
          <mxGeometry width="50" height="50" relative="1" as="geometry">
            <mxPoint x="588" y="603" as="sourcePoint" />
            <mxPoint x="588" y="100" as="targetPoint" />
          </mxGeometry>
        </mxCell>
        <mxCell id="tHsY2usxZLXycbhT2eaR-21" value="逐级上报负载信息" style="edgeLabel;html=1;align=center;verticalAlign=middle;resizable=0;points=[];fontSize=14;fontStyle=1" parent="tHsY2usxZLXycbhT2eaR-20" vertex="1" connectable="0">
          <mxGeometry x="0.1109" y="1" relative="1" as="geometry">
            <mxPoint as="offset" />
          </mxGeometry>
        </mxCell>
      </root>
    </mxGraphModel>
  </diagram>
  <diagram id="ENNMhgux2f-iruVChreo" name="NISHIKI AI高可用">
    <mxGraphModel dx="2062" dy="1114" grid="0" gridSize="10" guides="1" tooltips="1" connect="1" arrows="1" fold="1" page="1" pageScale="1" pageWidth="827" pageHeight="1169" math="0" shadow="0">
      <root>
        <mxCell id="dcTvriqG9T5MEzG9uUyU-0" />
        <mxCell id="dcTvriqG9T5MEzG9uUyU-1" parent="dcTvriqG9T5MEzG9uUyU-0" />
        <mxCell id="l9C1ZKVXEbGFNKyZnL03-44" value="Relay/DS异常" style="rounded=1;whiteSpace=wrap;html=1;fillColor=#b1ddf0;strokeColor=#10739e;labelPosition=center;verticalLabelPosition=middle;align=center;verticalAlign=top;labelBackgroundColor=none;labelBorderColor=none;fontStyle=1;fontSize=14;" vertex="1" parent="dcTvriqG9T5MEzG9uUyU-1">
          <mxGeometry x="162.5" y="770" width="462.5" height="302" as="geometry" />
        </mxCell>
        <mxCell id="l9C1ZKVXEbGFNKyZnL03-43" value="AISvr异常" style="rounded=1;whiteSpace=wrap;html=1;fillColor=#b1ddf0;strokeColor=#10739e;labelPosition=center;verticalLabelPosition=middle;align=center;verticalAlign=top;labelBackgroundColor=none;labelBorderColor=none;fontStyle=1;fontSize=14;" vertex="1" parent="dcTvriqG9T5MEzG9uUyU-1">
          <mxGeometry x="133" y="447" width="459" height="319" as="geometry" />
        </mxCell>
        <mxCell id="l9C1ZKVXEbGFNKyZnL03-42" value="DSAgent异常" style="rounded=1;whiteSpace=wrap;html=1;fillColor=#b1ddf0;strokeColor=#10739e;labelPosition=center;verticalLabelPosition=middle;align=center;verticalAlign=top;labelBackgroundColor=none;labelBorderColor=none;fontStyle=1;fontSize=14;" vertex="1" parent="dcTvriqG9T5MEzG9uUyU-1">
          <mxGeometry x="159" y="39" width="459" height="319" as="geometry" />
        </mxCell>
        <mxCell id="dcTvriqG9T5MEzG9uUyU-2" value="Matchsvr" style="rounded=0;whiteSpace=wrap;html=1;" vertex="1" parent="dcTvriqG9T5MEzG9uUyU-1">
          <mxGeometry x="311" y="110" width="120" height="60" as="geometry" />
        </mxCell>
        <mxCell id="l9C1ZKVXEbGFNKyZnL03-0" style="rounded=0;orthogonalLoop=1;jettySize=auto;html=1;exitX=0.5;exitY=0;exitDx=0;exitDy=0;entryX=0.5;entryY=1;entryDx=0;entryDy=0;" edge="1" parent="dcTvriqG9T5MEzG9uUyU-1" source="dcTvriqG9T5MEzG9uUyU-3" target="dcTvriqG9T5MEzG9uUyU-2">
          <mxGeometry relative="1" as="geometry" />
        </mxCell>
        <mxCell id="l9C1ZKVXEbGFNKyZnL03-4" value="心跳" style="edgeLabel;html=1;align=center;verticalAlign=middle;resizable=0;points=[];" vertex="1" connectable="0" parent="l9C1ZKVXEbGFNKyZnL03-0">
          <mxGeometry x="-0.2246" y="-2" relative="1" as="geometry">
            <mxPoint x="6" y="-10" as="offset" />
          </mxGeometry>
        </mxCell>
        <mxCell id="dcTvriqG9T5MEzG9uUyU-3" value="DSAgent" style="rounded=0;whiteSpace=wrap;html=1;" vertex="1" parent="dcTvriqG9T5MEzG9uUyU-1">
          <mxGeometry x="225" y="247" width="120" height="60" as="geometry" />
        </mxCell>
        <mxCell id="l9C1ZKVXEbGFNKyZnL03-1" style="edgeStyle=none;rounded=0;orthogonalLoop=1;jettySize=auto;html=1;exitX=0.5;exitY=0;exitDx=0;exitDy=0;entryX=0.5;entryY=1;entryDx=0;entryDy=0;" edge="1" parent="dcTvriqG9T5MEzG9uUyU-1" source="dcTvriqG9T5MEzG9uUyU-4" target="dcTvriqG9T5MEzG9uUyU-2">
          <mxGeometry relative="1" as="geometry" />
        </mxCell>
        <mxCell id="l9C1ZKVXEbGFNKyZnL03-2" value="故障剔除、自动恢复" style="edgeLabel;html=1;align=center;verticalAlign=middle;resizable=0;points=[];" vertex="1" connectable="0" parent="l9C1ZKVXEbGFNKyZnL03-1">
          <mxGeometry x="-0.2328" y="2" relative="1" as="geometry">
            <mxPoint x="-2" y="-10" as="offset" />
          </mxGeometry>
        </mxCell>
        <mxCell id="dcTvriqG9T5MEzG9uUyU-4" value="DSAgent" style="rounded=0;whiteSpace=wrap;html=1;fillColor=#CCCCCC;strokeColor=#314354;fontColor=#330000;" vertex="1" parent="dcTvriqG9T5MEzG9uUyU-1">
          <mxGeometry x="396" y="247" width="120" height="60" as="geometry" />
        </mxCell>
        <mxCell id="dcTvriqG9T5MEzG9uUyU-5" value="DS" style="rounded=0;whiteSpace=wrap;html=1;" vertex="1" parent="dcTvriqG9T5MEzG9uUyU-1">
          <mxGeometry x="146" y="476" width="120" height="60" as="geometry" />
        </mxCell>
        <mxCell id="l9C1ZKVXEbGFNKyZnL03-5" value="Relaysvr" style="rounded=0;whiteSpace=wrap;html=1;fillColor=#CCCCCC;" vertex="1" parent="dcTvriqG9T5MEzG9uUyU-1">
          <mxGeometry x="459" y="828" width="120" height="60" as="geometry" />
        </mxCell>
        <mxCell id="l9C1ZKVXEbGFNKyZnL03-6" value="AIProxy" style="rounded=0;whiteSpace=wrap;html=1;" vertex="1" parent="dcTvriqG9T5MEzG9uUyU-1">
          <mxGeometry x="354" y="476" width="120" height="60" as="geometry" />
        </mxCell>
        <mxCell id="l9C1ZKVXEbGFNKyZnL03-10" style="edgeStyle=none;rounded=0;orthogonalLoop=1;jettySize=auto;html=1;exitX=0.5;exitY=0;exitDx=0;exitDy=0;entryX=0.5;entryY=1;entryDx=0;entryDy=0;" edge="1" parent="dcTvriqG9T5MEzG9uUyU-1" source="l9C1ZKVXEbGFNKyZnL03-7" target="l9C1ZKVXEbGFNKyZnL03-6">
          <mxGeometry relative="1" as="geometry" />
        </mxCell>
        <mxCell id="l9C1ZKVXEbGFNKyZnL03-13" value="心跳" style="edgeLabel;html=1;align=center;verticalAlign=middle;resizable=0;points=[];" vertex="1" connectable="0" parent="l9C1ZKVXEbGFNKyZnL03-10">
          <mxGeometry x="-0.2862" y="-2" relative="1" as="geometry">
            <mxPoint x="7" y="-13" as="offset" />
          </mxGeometry>
        </mxCell>
        <mxCell id="l9C1ZKVXEbGFNKyZnL03-7" value="AISvr" style="rounded=0;whiteSpace=wrap;html=1;" vertex="1" parent="dcTvriqG9T5MEzG9uUyU-1">
          <mxGeometry x="231" y="613" width="120" height="60" as="geometry" />
        </mxCell>
        <mxCell id="l9C1ZKVXEbGFNKyZnL03-12" style="edgeStyle=none;rounded=0;orthogonalLoop=1;jettySize=auto;html=1;exitX=0.5;exitY=0;exitDx=0;exitDy=0;entryX=0.5;entryY=1;entryDx=0;entryDy=0;" edge="1" parent="dcTvriqG9T5MEzG9uUyU-1" source="l9C1ZKVXEbGFNKyZnL03-8" target="l9C1ZKVXEbGFNKyZnL03-6">
          <mxGeometry relative="1" as="geometry">
            <mxPoint x="375" y="539" as="targetPoint" />
          </mxGeometry>
        </mxCell>
        <mxCell id="l9C1ZKVXEbGFNKyZnL03-17" value="故障剔除、自动恢复" style="edgeLabel;html=1;align=center;verticalAlign=middle;resizable=0;points=[];" vertex="1" connectable="0" parent="l9C1ZKVXEbGFNKyZnL03-12">
          <mxGeometry x="-0.3246" relative="1" as="geometry">
            <mxPoint x="-5" y="-12" as="offset" />
          </mxGeometry>
        </mxCell>
        <mxCell id="l9C1ZKVXEbGFNKyZnL03-8" value="AISvr" style="rounded=0;whiteSpace=wrap;html=1;fillColor=#CCCCCC;strokeColor=#0e8088;" vertex="1" parent="dcTvriqG9T5MEzG9uUyU-1">
          <mxGeometry x="459" y="613" width="120" height="60" as="geometry" />
        </mxCell>
        <mxCell id="l9C1ZKVXEbGFNKyZnL03-19" value="" style="shape=flexArrow;endArrow=classic;html=1;rounded=0;entryX=1;entryY=0.5;entryDx=0;entryDy=0;exitX=0;exitY=0.5;exitDx=0;exitDy=0;" edge="1" parent="dcTvriqG9T5MEzG9uUyU-1" source="l9C1ZKVXEbGFNKyZnL03-8" target="l9C1ZKVXEbGFNKyZnL03-7">
          <mxGeometry width="50" height="50" relative="1" as="geometry">
            <mxPoint x="356" y="694" as="sourcePoint" />
            <mxPoint x="406" y="644" as="targetPoint" />
          </mxGeometry>
        </mxCell>
        <mxCell id="l9C1ZKVXEbGFNKyZnL03-20" value="无损迁移" style="edgeLabel;html=1;align=center;verticalAlign=middle;resizable=0;points=[];" vertex="1" connectable="0" parent="l9C1ZKVXEbGFNKyZnL03-19">
          <mxGeometry x="-0.4118" y="-3" relative="1" as="geometry">
            <mxPoint x="-15" y="-12" as="offset" />
          </mxGeometry>
        </mxCell>
        <mxCell id="l9C1ZKVXEbGFNKyZnL03-22" value="" style="endArrow=none;html=1;rounded=0;entryX=0;entryY=0.5;entryDx=0;entryDy=0;exitX=1;exitY=0.5;exitDx=0;exitDy=0;" edge="1" parent="dcTvriqG9T5MEzG9uUyU-1" source="dcTvriqG9T5MEzG9uUyU-5" target="l9C1ZKVXEbGFNKyZnL03-6">
          <mxGeometry width="50" height="50" relative="1" as="geometry">
            <mxPoint x="287" y="535" as="sourcePoint" />
            <mxPoint x="337" y="485" as="targetPoint" />
          </mxGeometry>
        </mxCell>
        <mxCell id="l9C1ZKVXEbGFNKyZnL03-23" value="DS" style="rounded=0;whiteSpace=wrap;html=1;" vertex="1" parent="dcTvriqG9T5MEzG9uUyU-1">
          <mxGeometry x="205" y="828" width="120" height="60" as="geometry" />
        </mxCell>
        <mxCell id="l9C1ZKVXEbGFNKyZnL03-30" value="Relaysvr" style="rounded=0;whiteSpace=wrap;html=1;" vertex="1" parent="dcTvriqG9T5MEzG9uUyU-1">
          <mxGeometry x="459" y="945" width="120" height="60" as="geometry" />
        </mxCell>
        <mxCell id="l9C1ZKVXEbGFNKyZnL03-33" value="DS" style="rounded=0;whiteSpace=wrap;html=1;fillColor=#CCCCCC;" vertex="1" parent="dcTvriqG9T5MEzG9uUyU-1">
          <mxGeometry x="205" y="945" width="120" height="60" as="geometry" />
        </mxCell>
        <mxCell id="l9C1ZKVXEbGFNKyZnL03-34" style="edgeStyle=orthogonalEdgeStyle;rounded=0;orthogonalLoop=1;jettySize=auto;html=1;exitX=0.5;exitY=1;exitDx=0;exitDy=0;entryX=1;entryY=0.5;entryDx=0;entryDy=0;curved=1;" edge="1" parent="dcTvriqG9T5MEzG9uUyU-1" source="l9C1ZKVXEbGFNKyZnL03-30" target="l9C1ZKVXEbGFNKyZnL03-30">
          <mxGeometry relative="1" as="geometry" />
        </mxCell>
        <mxCell id="l9C1ZKVXEbGFNKyZnL03-37" value="兜底，转行为树" style="edgeLabel;html=1;align=center;verticalAlign=middle;resizable=0;points=[];" vertex="1" connectable="0" parent="l9C1ZKVXEbGFNKyZnL03-34">
          <mxGeometry x="-0.0824" y="5" relative="1" as="geometry">
            <mxPoint as="offset" />
          </mxGeometry>
        </mxCell>
        <mxCell id="l9C1ZKVXEbGFNKyZnL03-47" value="" style="endArrow=none;html=1;rounded=0;fontSize=14;fontColor=#330000;curved=1;exitX=1;exitY=0.5;exitDx=0;exitDy=0;entryX=0;entryY=0.5;entryDx=0;entryDy=0;" edge="1" parent="dcTvriqG9T5MEzG9uUyU-1" source="l9C1ZKVXEbGFNKyZnL03-23" target="l9C1ZKVXEbGFNKyZnL03-5">
          <mxGeometry width="50" height="50" relative="1" as="geometry">
            <mxPoint x="358" y="885" as="sourcePoint" />
            <mxPoint x="408" y="835" as="targetPoint" />
          </mxGeometry>
        </mxCell>
        <mxCell id="l9C1ZKVXEbGFNKyZnL03-48" value="修复帧，单局恢复" style="edgeLabel;html=1;align=center;verticalAlign=middle;resizable=0;points=[];fontSize=14;fontColor=#330000;" vertex="1" connectable="0" parent="l9C1ZKVXEbGFNKyZnL03-47">
          <mxGeometry x="0.3433" y="1" relative="1" as="geometry">
            <mxPoint x="-23" y="1" as="offset" />
          </mxGeometry>
        </mxCell>
        <mxCell id="l9C1ZKVXEbGFNKyZnL03-49" value="" style="endArrow=none;html=1;rounded=0;fontSize=14;fontColor=#330000;curved=1;exitX=1;exitY=0.5;exitDx=0;exitDy=0;entryX=0;entryY=0.5;entryDx=0;entryDy=0;" edge="1" parent="dcTvriqG9T5MEzG9uUyU-1" source="l9C1ZKVXEbGFNKyZnL03-33" target="l9C1ZKVXEbGFNKyZnL03-30">
          <mxGeometry width="50" height="50" relative="1" as="geometry">
            <mxPoint x="341" y="978" as="sourcePoint" />
            <mxPoint x="391" y="928" as="targetPoint" />
          </mxGeometry>
        </mxCell>
        <mxCell id="l9C1ZKVXEbGFNKyZnL03-50" value="" style="shape=image;html=1;verticalAlign=top;verticalLabelPosition=bottom;labelBackgroundColor=#ffffff;imageAspect=0;aspect=fixed;image=https://cdn2.iconfinder.com/data/icons/august/PNG/Globe%20Disconnect.png;labelBorderColor=none;fontSize=14;fontColor=#330000;fillColor=#CCCCCC;" vertex="1" parent="dcTvriqG9T5MEzG9uUyU-1">
          <mxGeometry x="376" y="959" width="32" height="32" as="geometry" />
        </mxCell>
      </root>
    </mxGraphModel>
  </diagram>
</mxfile>
